# xmcd CD database file
#
# Track frame offsets:
#	150
#	15727
#	34210
#	55225
#	75247
#	97415
#	115792
#	134597
#	154132
#	172750
#
# Disc length: 2601 seconds
#
# Revision: 6
# Processed by: cddbd v1.5.2PL0 Copyright (c) Steve Scherf et al.
# Submitted via: CDex 1.51
#
DISCID=7a0a270a
DTITLE=Juan Luis Guerra and 4.40 - Bachata Rosa
DYEAR=1990
DGENRE=Salsa
TTITLE0=Rosalía
TTITLE1=Como Abeja al Panal
TTITLE2=Carta de Amor
TTITLE3=Estrellitas y Duendes
TTITLE4=A Pedir su Mano
TTITLE5=La Bilirrubina
TTITLE6=Burbujas de Amor
TTITLE7=Bachata Rosa
TTITLE8=Reforéstame
TTITLE9=Acompáñeme Civil
EXTD=YEAR: 1990
EXTT0=
EXTT1=
EXTT2=
EXTT3=
EXTT4=
EXTT5=
EXTT6=
EXTT7=
EXTT8=
EXTT9=
PLAYORDER=
